<svg xmlns="http://www.w3.org/2000/svg" xmlns:xlink="http://www.w3.org/1999/xlink" version="1.1" x="0px" y="0px" viewBox="0 0 50 62.5" enable-background="new 0 0 50 50" xml:space="preserve"><path d="M46,21.788H4c-0.899,0-1.63,0.736-1.63,1.64v11.831c0,0.904,0.731,1.639,1.63,1.639h1.48c0.552,0,1,0.447,1,1v4.725  l4.44-5.361c0.01-0.012,0.025-0.018,0.035-0.029c0.048-0.053,0.106-0.092,0.165-0.133c0.049-0.035,0.094-0.074,0.147-0.1  c0.054-0.025,0.113-0.035,0.172-0.051c0.069-0.018,0.135-0.037,0.206-0.041c0.016,0,0.029-0.01,0.045-0.01H46  c0.898,0,1.63-0.734,1.63-1.639V23.428C47.63,22.524,46.898,21.788,46,21.788z M24.155,33.008H6.891c-0.552,0-1-0.447-1-1  s0.448-1,1-1h17.265c0.552,0,1,0.447,1,1S24.708,33.008,24.155,33.008z M43.108,27.682H6.891c-0.552,0-1-0.449-1-1.001s0.448-1,1-1  h36.218c0.553,0,1,0.448,1,1S43.661,27.682,43.108,27.682z"/><polygon points="2.655,15.623 5.334,14.215 8.014,15.623 7.502,12.64 9.669,10.527 6.674,10.092 5.334,7.378 3.995,10.092 1,10.527   3.167,12.64 "/><polygon points="15.766,15.623 18.444,14.216 21.124,15.623 20.612,12.641 22.779,10.528 19.784,10.093 18.444,7.378 17.105,10.093   14.11,10.528 16.277,12.641 "/><polygon points="28.876,15.623 31.555,14.216 34.234,15.623 33.723,12.641 35.89,10.528 32.894,10.093 31.555,7.378 30.216,10.093   27.221,10.528 29.388,12.641 "/><polygon points="41.986,15.623 44.665,14.216 47.344,15.623 46.832,12.641 49,10.528 46.004,10.093 44.665,7.378 43.326,10.093   40.33,10.528 42.498,12.641 "/><text x="0" y="65" fill="#000000" font-size="5px" font-weight="bold" font-family="'Helvetica Neue', Helvetica, Arial-Unicode, Arial, Sans-serif">Created by Alex Burte</text><text x="0" y="70" fill="#000000" font-size="5px" font-weight="bold" font-family="'Helvetica Neue', Helvetica, Arial-Unicode, Arial, Sans-serif">from the Noun Project</text></svg>